<?xml version="1.0" encoding="utf-8"?>
<!-- Generator: Adobe Illustrator 16.0.0, SVG Export Plug-In . SVG Version: 6.00 Build 0)  -->
<!DOCTYPE svg PUBLIC "-//W3C//DTD SVG 1.1//EN" "http://www.w3.org/Graphics/SVG/1.1/DTD/svg11.dtd">
<svg version="1.1" id="Capa_1" xmlns="http://www.w3.org/2000/svg" xmlns:xlink="http://www.w3.org/1999/xlink" x="0px" y="0px"
	 width="300px" height="120px" viewBox="0 0 300 120" enable-background="new 0 0 300 120" xml:space="preserve">
<path fill="#FFFFFF" d="M36.888,52.809c-0.2,0.009-0.442,0.052-0.727,0.133c-0.284,0.082-0.519,0.179-0.704,0.295
	c-0.262,0.161-0.471,0.369-0.629,0.623c-0.157,0.253-0.313,0.554-0.467,0.9c-0.516,1.223-1.288,3.129-2.318,5.717
	c-1.03,2.589-2.092,5.287-3.184,8.096h-0.958c-1.107-2.979-2.176-5.849-3.207-8.609c-1.03-2.762-1.73-4.627-2.099-5.596
	c-0.092-0.238-0.215-0.448-0.369-0.629c-0.154-0.18-0.358-0.352-0.612-0.513c-0.208-0.131-0.438-0.229-0.691-0.295
	c-0.254-0.065-0.488-0.105-0.704-0.122V51.99h6.773v0.819c-0.577,0.031-1.063,0.089-1.459,0.173
	c-0.396,0.085-0.594,0.235-0.594,0.451c0,0.084,0.016,0.184,0.046,0.299c0.031,0.116,0.057,0.208,0.081,0.277
	c0.285,0.754,0.746,1.984,1.384,3.689c0.638,1.706,1.546,4.132,2.722,7.282c0.584-1.426,1.258-3.106,2.019-5.047
	c0.761-1.939,1.273-3.271,1.534-3.995c0.254-0.701,0.402-1.186,0.444-1.455c0.043-0.27,0.064-0.488,0.064-0.658
	c0-0.176-0.079-0.324-0.236-0.444c-0.157-0.12-0.367-0.221-0.629-0.306c-0.253-0.077-0.511-0.134-0.772-0.173
	c-0.262-0.039-0.527-0.069-0.796-0.093V51.99h6.088V52.809z M51.887,63.54l-0.311,4.823H37.987v-0.819
	c0.231-0.015,0.538-0.047,0.923-0.099c0.384-0.049,0.634-0.103,0.75-0.154c0.247-0.115,0.417-0.266,0.513-0.45
	c0.097-0.185,0.144-0.42,0.144-0.704v-11.77c0-0.254-0.042-0.479-0.126-0.675c-0.085-0.196-0.262-0.355-0.531-0.479
	c-0.208-0.1-0.487-0.188-0.836-0.266c-0.351-0.077-0.629-0.123-0.836-0.139V51.99h12.666v3.947h-0.865
	c-0.154-0.584-0.487-1.207-0.998-1.864c-0.511-0.658-0.998-1.018-1.459-1.079c-0.239-0.031-0.523-0.054-0.854-0.069
	c-0.331-0.015-0.708-0.023-1.13-0.023h-2.573v6.508h1.846c0.592,0,1.024-0.055,1.297-0.167c0.273-0.111,0.514-0.298,0.721-0.56
	c0.169-0.223,0.313-0.521,0.433-0.894c0.119-0.373,0.197-0.726,0.236-1.056h0.865v6.416h-0.865c-0.03-0.369-0.114-0.76-0.248-1.172
	c-0.134-0.412-0.275-0.709-0.421-0.895c-0.239-0.3-0.51-0.495-0.814-0.588c-0.303-0.092-0.705-0.139-1.205-0.139h-1.846v4.909
	c0,0.489,0.034,0.879,0.104,1.163c0.069,0.283,0.204,0.499,0.404,0.644c0.2,0.146,0.473,0.24,0.818,0.285
	c0.346,0.041,0.838,0.062,1.477,0.062c0.254,0,0.588,0,1.003,0c0.416,0,0.766-0.016,1.05-0.046c0.292-0.03,0.594-0.086,0.905-0.168
	c0.312-0.08,0.533-0.188,0.664-0.327c0.353-0.369,0.725-0.932,1.113-1.682s0.636-1.301,0.745-1.654L51.887,63.54L51.887,63.54z
	 M70.09,68.363h-4.407c-0.976-1.531-1.857-2.854-2.645-3.969c-0.788-1.117-1.642-2.268-2.564-3.451h-1.676v5.191
	c0,0.27,0.042,0.508,0.127,0.711c0.084,0.202,0.265,0.358,0.542,0.469c0.138,0.053,0.38,0.103,0.727,0.147
	c0.346,0.046,0.638,0.073,0.877,0.08v0.817H54.15v-0.817c0.184-0.017,0.452-0.042,0.801-0.08c0.35-0.038,0.594-0.089,0.732-0.147
	c0.23-0.103,0.398-0.248,0.502-0.438c0.104-0.192,0.155-0.438,0.155-0.739V54.298c0-0.27-0.038-0.508-0.115-0.715
	c-0.077-0.208-0.258-0.366-0.542-0.474c-0.193-0.069-0.442-0.132-0.75-0.19s-0.569-0.094-0.784-0.11V51.99h7.555
	c0.692,0,1.342,0.072,1.95,0.214c0.607,0.142,1.157,0.371,1.649,0.687c0.477,0.308,0.858,0.709,1.143,1.206
	c0.284,0.496,0.427,1.094,0.427,1.794c0,0.631-0.097,1.189-0.288,1.674c-0.193,0.484-0.477,0.904-0.854,1.257
	c-0.346,0.331-0.761,0.618-1.247,0.86c-0.483,0.242-1.019,0.448-1.603,0.617c0.807,1.07,1.478,1.971,2.012,2.699
	c0.535,0.732,1.19,1.62,1.968,2.667c0.337,0.461,0.643,0.802,0.916,1.021c0.273,0.221,0.544,0.397,0.814,0.537
	c0.199,0.102,0.45,0.176,0.749,0.23c0.3,0.053,0.55,0.084,0.75,0.091V68.363z M64.022,56.162c0-0.991-0.284-1.776-0.854-2.355
	c-0.569-0.58-1.372-0.87-2.411-0.87h-1.96v7.016h1.511c1.062,0,1.946-0.339,2.653-1.02C63.669,58.252,64.022,57.329,64.022,56.162z
	 M86.991,60.275c0,1.393-0.262,2.601-0.784,3.624c-0.523,1.021-1.204,1.86-2.042,2.516c-0.846,0.652-1.795,1.145-2.849,1.467
	c-1.053,0.322-2.142,0.483-3.265,0.483h-6.783v-0.819c0.223,0,0.513-0.021,0.871-0.062c0.357-0.041,0.594-0.09,0.709-0.145
	c0.23-0.102,0.398-0.247,0.502-0.443c0.104-0.195,0.155-0.435,0.155-0.709V54.367c0-0.261-0.044-0.496-0.132-0.704
	c-0.089-0.208-0.264-0.373-0.525-0.496c-0.238-0.116-0.496-0.2-0.773-0.254c-0.276-0.054-0.515-0.088-0.715-0.104V51.99h7.152
	c0.984,0,1.954,0.152,2.907,0.456c0.953,0.304,1.784,0.714,2.492,1.229c0.96,0.685,1.714,1.581,2.261,2.688
	C86.718,57.471,86.991,58.774,86.991,60.275z M84.165,60.27c0-1.1-0.146-2.093-0.438-2.981c-0.292-0.887-0.719-1.662-1.28-2.323
	c-0.53-0.63-1.182-1.125-1.955-1.486c-0.773-0.362-1.632-0.542-2.578-0.542c-0.315,0-0.671,0.005-1.067,0.018
	c-0.396,0.011-0.69,0.021-0.882,0.028v12.579c0,0.701,0.203,1.187,0.611,1.453c0.408,0.271,1.035,0.403,1.881,0.403
	c0.976,0,1.83-0.173,2.56-0.519c0.731-0.346,1.323-0.825,1.777-1.441c0.477-0.646,0.825-1.393,1.044-2.242
	C84.057,62.368,84.165,61.383,84.165,60.27z M104.862,68.363h-6.804v-0.819c0.601-0.038,1.098-0.114,1.494-0.229
	c0.396-0.114,0.594-0.258,0.594-0.428c0-0.068-0.008-0.152-0.023-0.253c-0.016-0.101-0.039-0.188-0.069-0.266l-1.355-3.67h-5.747
	c-0.215,0.538-0.391,1.009-0.525,1.407c-0.135,0.397-0.256,0.77-0.363,1.106c-0.101,0.331-0.17,0.603-0.209,0.81
	c-0.038,0.207-0.057,0.377-0.057,0.508c0,0.307,0.242,0.546,0.727,0.715c0.484,0.169,1.03,0.27,1.638,0.3v0.819h-6.165v-0.819
	c0.2-0.015,0.45-0.058,0.75-0.133c0.3-0.073,0.545-0.171,0.738-0.293c0.307-0.208,0.546-0.425,0.715-0.652
	c0.169-0.227,0.335-0.54,0.496-0.94c0.823-2.055,1.73-4.36,2.722-6.921c0.992-2.562,1.876-4.843,2.653-6.843h0.923l5.456,14.124
	c0.116,0.301,0.247,0.542,0.393,0.729c0.146,0.186,0.35,0.365,0.611,0.543c0.178,0.105,0.408,0.199,0.693,0.271
	c0.284,0.073,0.522,0.113,0.715,0.12L104.862,68.363L104.862,68.363z M98.277,61.672l-2.479-6.355l-2.444,6.355H98.277z
	 M121.717,60.275c0,1.393-0.261,2.601-0.785,3.624c-0.522,1.021-1.204,1.86-2.042,2.516c-0.846,0.652-1.795,1.145-2.849,1.467
	s-2.142,0.483-3.265,0.483h-6.783v-0.819c0.223,0,0.513-0.021,0.871-0.062c0.357-0.041,0.594-0.09,0.709-0.145
	c0.23-0.102,0.398-0.247,0.502-0.443c0.104-0.195,0.156-0.435,0.156-0.709V54.367c0-0.261-0.044-0.496-0.132-0.704
	c-0.089-0.208-0.264-0.373-0.525-0.496c-0.238-0.116-0.496-0.2-0.773-0.254c-0.276-0.054-0.515-0.088-0.715-0.104V51.99h7.152
	c0.985,0,1.954,0.152,2.907,0.456c0.954,0.304,1.784,0.714,2.492,1.229c0.961,0.685,1.715,1.581,2.261,2.688
	C121.444,57.471,121.717,58.774,121.717,60.275z M118.891,60.27c0-1.1-0.146-2.093-0.438-2.981c-0.292-0.887-0.719-1.662-1.28-2.323
	c-0.53-0.63-1.182-1.125-1.955-1.486c-0.773-0.362-1.632-0.542-2.578-0.542c-0.316,0-0.671,0.005-1.067,0.018
	c-0.396,0.011-0.691,0.021-0.882,0.028v12.579c0,0.701,0.204,1.187,0.611,1.453c0.408,0.271,1.034,0.403,1.88,0.403
	c0.977,0,1.83-0.173,2.561-0.519s1.323-0.825,1.776-1.441c0.477-0.646,0.825-1.393,1.044-2.242
	C118.782,62.365,118.891,61.383,118.891,60.27z"/>
<path fill="#FFFFFF" d="M119.476,50.921l-1.616-2.628l-2.223-3.033l-1.415-3.234l-1.819-5.054l-3.436-5.054l-2.829-4.853
	l-1.818-2.629l-3.84-0.808l-2.627-2.021l-2.021-2.628l-2.223-3.235l-1.819-1.415l-2.83-1.011l-6.265-0.606l-1.818-0.202
	l-3.234-0.607l-1.01-2.83l-2.426-0.808L72.59,7.456h-4.244l-2.222,0.607L63.9,8.667h-1.819l-1.617,0.606l-2.223,0.809l-3.234,0.607
	l-2.627-0.607h-2.021l-4.445,2.021l-3.436,1.416l-3.84,2.224l-3.435,2.426l-4.244,3.032l-2.829,2.83l-1.82,2.628l-3.031,3.437
	l-2.627,3.64l-2.021,3.032l-1.01,3.235l-1.213,2.426l-0.809,3.437l-0.605,4.043l-0.405,3.235l-0.404,3.033v2.224l-0.404,3.033
	l0.606,2.426l0.202,1.617l0.202,3.842l0.607,2.428l0.606,2.628l1.212,3.438l0.606,2.021l2.627,3.642l1.213,2.021l2.021,3.639
	l2.425,3.843l2.223,3.233l3.637,3.841l4.043,3.031c0,0,0.808,1.012,2.626,1.82c1.819,0.81,3.638,2.225,3.638,2.225l3.84,1.214
	l3.436,0.808l3.436,1.416l5.86,0.605l4.042,0.404h6.467l2.223-0.201l3.436-0.203l3.436-0.201l3.234-1.213l3.637-1.415l3.84-1.616
	l2.627-1.819l3.638-1.617l3.032-2.63l3.032-3.234l4.042-3.841l2.223-3.642l2.83-4.647l2.626-4.448l1.618-3.232l1.617-2.223
	l1.212-1.82l2.02-2.022l0.203,9.3l-1.415,1.618l-1.616,3.235l-1.819,3.438l-2.021,2.829l-1.819,2.427l-1.415,1.819l-2.425,2.628
	l-1.819,1.818l-3.436,3.234l-3.435,2.832l-3.032,1.817l-2.627,0.81l-2.426,1.213l-2.021,1.416l-2.627,0.809l-3.233,1.012
	l-3.233,0.605l-2.224,0.607l-3.435,0.402l-5.862,0.402l-5.254,0.811l-1.819-0.811l-4.042-0.402l-2.83-0.605l-2.83-1.012
	l-2.829-0.605l-2.223-0.605l-5.052-0.809l-1.82-1.416l-2.425-1.416l-3.031-2.223l-3.234-2.427l-2.627-2.429l-2.627-2.829
	l-2.223-2.83l-3.032-3.438l-2.02-3.032l-2.021-3.437l-1.819-3.236l-0.809-2.426l-1.212-3.031l-0.808-4.245l-0.202-3.843
	l-1.415-4.649L9.334,56.99l0.809-3.032l0.606-4.448l1.011-3.235l0.606-2.628l1.212-2.627l1.01-4.651l2.224-3.234l2.021-3.64
	l2.223-3.437l3.031-2.831l3.436-3.841l4.445-3.64l4.043-3.032l4.243-2.021l3.031-1.213l2.223-0.607l2.021-1.617l2.829-1.213
	l3.638-1.011l3.638,0.202l0.809-1.213h6.063l4.445-0.404h3.638l3.032,0.404l3.435,1.011l3.638,0.809l4.042,1.212l2.021,1.213
	l2.223,1.01l2.223,1.82l4.042,1.416l3.032,2.223l3.436,2.224l2.425,2.022l3.233,3.235l1.819,3.438l2.627,2.224l2.224,3.436
	l2.424,2.832l1.01,3.031l1.415,2.225l-0.202,11.321L119.476,50.921z"/>
<path fill="#FFFFFF" d="M152.372,60.736c0.478,0.322,0.873,0.746,1.188,1.27c0.313,0.523,0.474,1.158,0.474,1.904
	c0,0.761-0.166,1.422-0.496,1.984c-0.331,0.562-0.761,1.021-1.292,1.383c-0.516,0.354-1.098,0.625-1.748,0.81
	c-0.649,0.187-1.319,0.276-2.012,0.276h-7.752v-0.819c0.185-0.015,0.455-0.047,0.808-0.099c0.353-0.049,0.607-0.108,0.761-0.178
	c0.238-0.107,0.408-0.252,0.508-0.435s0.15-0.414,0.15-0.698v-11.77c0-0.261-0.044-0.492-0.132-0.692
	c-0.089-0.199-0.264-0.361-0.525-0.484c-0.23-0.115-0.488-0.205-0.773-0.266c-0.285-0.061-0.523-0.1-0.715-0.115V51.99h7.555
	c0.584,0,1.144,0.058,1.679,0.173c0.535,0.116,1.044,0.319,1.527,0.612c0.455,0.269,0.827,0.635,1.12,1.096
	c0.291,0.462,0.438,1.023,0.438,1.684c0,0.578-0.103,1.092-0.311,1.543c-0.207,0.449-0.499,0.836-0.877,1.158
	c-0.354,0.309-0.76,0.567-1.217,0.779c-0.458,0.211-0.954,0.375-1.482,0.49v0.104c0.468,0.055,0.994,0.17,1.574,0.352
	C151.402,60.161,151.919,60.413,152.372,60.736z M149.582,58.266c0.284-0.332,0.481-0.693,0.593-1.086
	c0.111-0.395,0.168-0.859,0.168-1.4c0-0.9-0.247-1.608-0.738-2.12c-0.491-0.513-1.266-0.769-2.324-0.769
	c-0.245,0-0.554,0.006-0.926,0.017c-0.373,0.011-0.686,0.021-0.938,0.028v6.301h1.461c0.629,0,1.168-0.082,1.617-0.243
	C148.943,58.832,149.306,58.589,149.582,58.266z M151.186,63.495c0-0.97-0.326-1.767-0.977-2.39
	c-0.649-0.624-1.578-0.937-2.786-0.937c-0.492,0-0.907,0.007-1.246,0.018c-0.337,0.012-0.592,0.021-0.761,0.028v5.771
	c0,0.484,0.196,0.85,0.588,1.097c0.393,0.247,0.938,0.37,1.638,0.37c1.146,0,2.022-0.335,2.63-1.005
	C150.879,65.779,151.186,64.794,151.186,63.495z M163.953,68.363h-7.37v-0.819c0.207-0.015,0.507-0.038,0.899-0.067
	c0.392-0.031,0.668-0.078,0.83-0.14c0.254-0.101,0.438-0.235,0.555-0.41c0.115-0.173,0.173-0.413,0.173-0.721V54.344
	c0-0.27-0.042-0.494-0.127-0.675c-0.085-0.18-0.285-0.333-0.601-0.456c-0.23-0.092-0.521-0.179-0.871-0.259
	c-0.352-0.082-0.637-0.129-0.858-0.146V51.99h7.37v0.818c-0.237,0.01-0.521,0.037-0.854,0.088c-0.33,0.049-0.619,0.112-0.865,0.188
	c-0.293,0.093-0.488,0.243-0.588,0.45c-0.101,0.208-0.149,0.438-0.149,0.693V66.08c0,0.253,0.056,0.479,0.167,0.674
	c0.111,0.197,0.301,0.352,0.57,0.469c0.162,0.062,0.426,0.129,0.789,0.201c0.367,0.073,0.677,0.113,0.93,0.12V68.363z
	 M180.361,63.54l-0.312,4.823h-13.588v-0.819c0.23-0.015,0.539-0.047,0.923-0.099c0.386-0.049,0.634-0.103,0.75-0.154
	c0.247-0.115,0.417-0.266,0.513-0.45c0.1-0.185,0.146-0.42,0.146-0.704v-11.77c0-0.254-0.043-0.479-0.127-0.676
	c-0.085-0.195-0.262-0.354-0.531-0.479c-0.207-0.1-0.486-0.188-0.836-0.266c-0.351-0.077-0.629-0.123-0.837-0.139V51.99h12.666
	v3.947h-0.864c-0.154-0.584-0.486-1.207-0.998-1.864c-0.512-0.658-0.998-1.019-1.459-1.079c-0.238-0.031-0.521-0.055-0.854-0.069
	c-0.332-0.014-0.707-0.022-1.131-0.022h-2.572v6.508h1.846c0.594,0,1.024-0.055,1.297-0.167c0.273-0.111,0.516-0.298,0.725-0.56
	c0.169-0.224,0.312-0.521,0.432-0.895c0.119-0.373,0.198-0.727,0.237-1.057h0.864v6.417h-0.864c-0.031-0.369-0.114-0.76-0.249-1.172
	c-0.137-0.412-0.273-0.709-0.42-0.896c-0.239-0.3-0.512-0.495-0.812-0.588c-0.305-0.092-0.707-0.139-1.205-0.139h-1.848v4.908
	c0,0.489,0.035,0.879,0.104,1.163c0.068,0.283,0.203,0.499,0.402,0.644c0.2,0.146,0.475,0.24,0.819,0.285
	c0.347,0.041,0.838,0.062,1.478,0.062c0.252,0,0.588,0,1.004,0c0.414,0,0.766-0.016,1.049-0.046c0.291-0.03,0.596-0.086,0.906-0.168
	c0.312-0.08,0.531-0.188,0.662-0.327c0.354-0.369,0.725-0.932,1.112-1.682c0.39-0.75,0.637-1.301,0.745-1.654L180.361,63.54
	L180.361,63.54z M198.562,68.363h-4.405c-0.978-1.531-1.858-2.854-2.646-3.969c-0.787-1.117-1.644-2.268-2.564-3.451h-1.678v5.191
	c0,0.27,0.045,0.508,0.127,0.711c0.086,0.202,0.267,0.358,0.543,0.469c0.14,0.053,0.381,0.103,0.727,0.147
	c0.348,0.046,0.641,0.073,0.877,0.08v0.817h-6.92v-0.817c0.184-0.017,0.451-0.042,0.802-0.08c0.349-0.038,0.595-0.089,0.732-0.147
	c0.229-0.103,0.397-0.248,0.502-0.438c0.103-0.192,0.153-0.438,0.153-0.739V54.298c0-0.271-0.037-0.508-0.115-0.715
	c-0.075-0.208-0.256-0.366-0.54-0.474c-0.193-0.069-0.443-0.133-0.751-0.19c-0.307-0.058-0.568-0.094-0.783-0.11V51.99h7.555
	c0.693,0,1.344,0.072,1.95,0.214c0.608,0.142,1.156,0.371,1.649,0.687c0.476,0.309,0.855,0.709,1.142,1.207
	c0.284,0.495,0.427,1.094,0.427,1.793c0,0.631-0.096,1.189-0.287,1.674c-0.192,0.484-0.479,0.904-0.854,1.258
	c-0.348,0.33-0.762,0.617-1.246,0.859c-0.482,0.242-1.02,0.448-1.604,0.617c0.809,1.07,1.479,1.971,2.015,2.699
	c0.534,0.732,1.188,1.62,1.966,2.667c0.339,0.461,0.645,0.802,0.918,1.021c0.271,0.221,0.543,0.397,0.812,0.537
	c0.199,0.102,0.449,0.176,0.75,0.23c0.299,0.053,0.549,0.084,0.748,0.091v0.819H198.562z M192.497,56.162
	c0-0.991-0.285-1.776-0.854-2.355c-0.57-0.58-1.373-0.869-2.41-0.869h-1.963v7.016h1.514c1.061,0,1.943-0.339,2.65-1.02
	C192.143,58.252,192.497,57.329,192.497,56.162z M213.1,56.432h-0.795c-0.07-0.277-0.193-0.605-0.375-0.986
	c-0.183-0.381-0.386-0.739-0.606-1.078c-0.23-0.354-0.482-0.664-0.759-0.928c-0.271-0.267-0.537-0.418-0.791-0.457
	c-0.238-0.03-0.539-0.055-0.901-0.069c-0.36-0.015-0.696-0.022-1.005-0.022h-0.672v13.096c0,0.256,0.054,0.488,0.16,0.699
	c0.108,0.211,0.297,0.375,0.564,0.489c0.139,0.054,0.43,0.128,0.872,0.22c0.442,0.094,0.787,0.144,1.032,0.148v0.819h-7.729v-0.819
	c0.215-0.016,0.543-0.046,0.984-0.091c0.441-0.047,0.748-0.104,0.918-0.177c0.253-0.098,0.438-0.241,0.561-0.432
	c0.117-0.188,0.178-0.441,0.178-0.756V52.891h-0.67c-0.236,0-0.533,0.006-0.887,0.017c-0.354,0.011-0.693,0.036-1.017,0.075
	c-0.254,0.031-0.519,0.183-0.79,0.457c-0.271,0.272-0.523,0.582-0.756,0.928c-0.229,0.346-0.436,0.714-0.61,1.102
	c-0.178,0.389-0.301,0.709-0.368,0.963h-0.809V51.99h14.27V56.432z M230.255,68.363h-6.804v-0.819
	c0.6-0.038,1.098-0.114,1.494-0.229c0.396-0.114,0.594-0.258,0.594-0.428c0-0.068-0.008-0.152-0.023-0.253
	c-0.015-0.101-0.037-0.188-0.066-0.266l-1.355-3.67h-5.744c-0.218,0.538-0.393,1.009-0.525,1.407
	c-0.135,0.397-0.258,0.77-0.365,1.106c-0.1,0.331-0.169,0.603-0.206,0.81c-0.04,0.207-0.06,0.377-0.06,0.508
	c0,0.307,0.242,0.546,0.727,0.715c0.485,0.169,1.031,0.27,1.639,0.3v0.819h-6.164v-0.819c0.201-0.015,0.451-0.058,0.75-0.133
	c0.301-0.073,0.547-0.171,0.738-0.293c0.309-0.208,0.547-0.425,0.715-0.652c0.17-0.228,0.336-0.54,0.496-0.94
	c0.823-2.055,1.73-4.36,2.723-6.921c0.992-2.562,1.877-4.844,2.654-6.844h0.922l5.455,14.124c0.116,0.3,0.248,0.542,0.395,0.728
	c0.146,0.187,0.35,0.365,0.609,0.543c0.176,0.106,0.408,0.199,0.692,0.271c0.284,0.073,0.522,0.113,0.716,0.12v0.818L230.255,68.363
	L230.255,68.363z M223.67,61.672l-2.479-6.355l-2.444,6.355H223.67z M235.091,67.038c0,0.43-0.155,0.797-0.467,1.101
	c-0.312,0.303-0.683,0.457-1.112,0.457c-0.431,0-0.803-0.154-1.113-0.457c-0.312-0.304-0.467-0.671-0.467-1.101
	c0-0.433,0.154-0.804,0.467-1.114c0.312-0.312,0.684-0.469,1.113-0.469s0.801,0.156,1.112,0.469
	C234.936,66.234,235.091,66.605,235.091,67.038z M245.594,68.757c-0.976,0-1.91-0.192-2.807-0.577
	c-0.895-0.386-1.688-0.938-2.379-1.662c-0.686-0.725-1.229-1.606-1.637-2.649c-0.408-1.044-0.611-2.22-0.611-3.528
	c0-1.308,0.199-2.496,0.599-3.562s0.953-1.984,1.66-2.754c0.699-0.762,1.524-1.351,2.478-1.767c0.955-0.416,1.973-0.624,3.056-0.624
	c0.808,0,1.536,0.102,2.188,0.301c0.653,0.199,1.275,0.48,1.866,0.842l0.474-0.785h0.922l0.104,5.839h-0.946
	c-0.123-0.569-0.308-1.187-0.553-1.853c-0.246-0.666-0.535-1.229-0.863-1.69c-0.369-0.522-0.809-0.933-1.313-1.229
	c-0.507-0.295-1.086-0.443-1.739-0.443c-0.744,0-1.438,0.166-2.078,0.496c-0.643,0.332-1.195,0.82-1.664,1.468
	c-0.445,0.624-0.795,1.417-1.051,2.379c-0.253,0.962-0.379,2.036-0.379,3.224c0,1.046,0.132,2.005,0.396,2.88
	c0.267,0.873,0.645,1.643,1.137,2.304c0.49,0.653,1.072,1.166,1.744,1.534c0.673,0.371,1.424,0.558,2.253,0.558
	c0.622,0,1.194-0.101,1.718-0.295c0.521-0.196,0.977-0.457,1.357-0.779c0.387-0.339,0.725-0.723,1.016-1.151
	c0.292-0.434,0.529-0.9,0.715-1.41l0.865,0.416c-0.661,1.623-1.538,2.783-2.628,3.479C248.398,68.408,247.102,68.757,245.594,68.757
	z M267.37,53.928c0.723,0.754,1.288,1.664,1.694,2.729c0.408,1.065,0.61,2.243,0.61,3.536c0,1.301-0.208,2.481-0.62,3.543
	c-0.416,1.062-0.992,1.966-1.731,2.712c-0.714,0.739-1.544,1.308-2.491,1.708c-0.946,0.4-1.954,0.601-3.021,0.601
	c-1.139,0-2.188-0.214-3.156-0.641c-0.963-0.427-1.793-1.022-2.483-1.783c-0.69-0.747-1.235-1.651-1.631-2.718
	c-0.396-1.064-0.597-2.205-0.597-3.422c0-1.33,0.207-2.518,0.623-3.56s0.988-1.944,1.721-2.706c0.722-0.753,1.562-1.33,2.521-1.729
	c0.957-0.4,1.959-0.601,3.006-0.601c1.084,0,2.105,0.204,3.065,0.612C265.839,52.617,266.671,53.189,267.37,53.928z M265.65,65.537
	c0.432-0.7,0.744-1.492,0.939-2.378c0.195-0.884,0.293-1.872,0.293-2.966c0-1.123-0.107-2.153-0.326-3.092
	c-0.221-0.938-0.541-1.738-0.965-2.399c-0.423-0.654-0.951-1.164-1.592-1.529c-0.639-0.366-1.368-0.548-2.189-0.548
	c-0.926,0-1.709,0.211-2.354,0.634c-0.646,0.423-1.173,0.988-1.581,1.697c-0.384,0.677-0.67,1.469-0.857,2.376
	c-0.188,0.908-0.283,1.861-0.283,2.861c0,1.107,0.102,2.107,0.302,3c0.198,0.893,0.515,1.686,0.944,2.377
	c0.414,0.678,0.938,1.205,1.567,1.588c0.63,0.381,1.386,0.57,2.263,0.57c0.822,0,1.563-0.191,2.228-0.576
	C264.697,66.77,265.236,66.229,265.65,65.537z M292.025,68.363h-7.232v-0.819c0.262-0.007,0.598-0.034,1.01-0.08
	c0.41-0.047,0.692-0.11,0.848-0.196c0.238-0.146,0.412-0.312,0.524-0.502c0.11-0.188,0.167-0.425,0.167-0.709v-11.91h-0.173
	l-5.583,13.951h-0.576l-5.318-14.238h-0.148v9.772c0,0.946,0.061,1.665,0.18,2.158c0.118,0.491,0.303,0.847,0.549,1.062
	c0.17,0.162,0.519,0.316,1.049,0.463c0.531,0.146,0.877,0.224,1.039,0.229v0.817h-6.609v-0.817c0.346-0.028,0.709-0.087,1.091-0.173
	c0.38-0.084,0.675-0.211,0.882-0.381c0.271-0.217,0.454-0.547,0.555-0.992s0.149-1.189,0.149-2.238v-8.377
	c0-0.485-0.06-0.881-0.175-1.188c-0.113-0.307-0.279-0.557-0.495-0.75c-0.237-0.207-0.53-0.361-0.876-0.461
	c-0.348-0.1-0.688-0.157-1.025-0.174v-0.82h5.58l4.688,12.292l4-10.282c0.146-0.377,0.271-0.771,0.375-1.184
	s0.157-0.688,0.168-0.826h5.336v0.818c-0.215,0.01-0.487,0.043-0.823,0.104c-0.335,0.062-0.578,0.12-0.731,0.173
	c-0.263,0.094-0.438,0.247-0.53,0.462c-0.093,0.216-0.141,0.45-0.141,0.704v11.808c0,0.269,0.048,0.493,0.141,0.681
	c0.092,0.185,0.271,0.346,0.53,0.483c0.14,0.076,0.384,0.147,0.737,0.215c0.354,0.063,0.635,0.102,0.842,0.106v0.817h-0.002V68.363z
	 M138.874,67.426c-0.285-0.072-0.515-0.165-0.692-0.271c-0.262-0.178-0.466-0.356-0.612-0.543c-0.146-0.186-0.277-0.428-0.392-0.728
	l-5.457-14.124h-0.923c-0.776,2-1.66,4.282-2.652,6.844c-0.992,2.561-1.899,4.867-2.722,6.921c-0.162,0.4-0.328,0.714-0.497,0.94
	c-0.169,0.228-0.407,0.444-0.715,0.652c-0.192,0.122-0.438,0.22-0.738,0.293c-0.3,0.075-0.55,0.118-0.75,0.133v0.819h6.165v-0.819
	c-0.608-0.03-1.154-0.131-1.638-0.3c-0.485-0.169-0.727-0.408-0.727-0.715c0-0.131,0.019-0.301,0.057-0.508
	c0.039-0.207,0.108-0.479,0.208-0.81c0.108-0.337,0.228-0.709,0.364-1.106c0.135-0.398,0.31-0.869,0.525-1.407h5.747l1.355,3.67
	c0.03,0.077,0.053,0.165,0.069,0.266s0.023,0.185,0.023,0.253c0,0.17-0.198,0.313-0.594,0.428c-0.396,0.115-0.893,0.191-1.494,0.229
	v0.819h6.804l0.001-0.817C139.396,67.539,139.158,67.499,138.874,67.426z M128.08,61.672l2.444-6.355l2.479,6.355H128.08z"/>
<g>
	<path fill="#FFFFFF" d="M36.888,52.809c-0.2,0.01-0.442,0.053-0.727,0.133c-0.284,0.082-0.519,0.18-0.704,0.295
		c-0.262,0.162-0.471,0.369-0.629,0.623c-0.157,0.254-0.313,0.555-0.467,0.9c-0.516,1.223-1.288,3.129-2.318,5.717
		c-1.03,2.589-2.092,5.287-3.184,8.097h-0.958c-1.107-2.979-2.176-5.85-3.207-8.609c-1.03-2.762-1.73-4.627-2.099-5.596
		c-0.092-0.238-0.215-0.448-0.369-0.63c-0.154-0.18-0.358-0.352-0.612-0.512c-0.208-0.131-0.438-0.229-0.691-0.295
		c-0.254-0.065-0.488-0.105-0.704-0.123V51.99h6.773v0.818c-0.577,0.031-1.063,0.09-1.459,0.174s-0.594,0.234-0.594,0.451
		c0,0.084,0.016,0.184,0.046,0.299c0.031,0.115,0.057,0.207,0.081,0.276c0.285,0.755,0.746,1.984,1.384,3.689
		c0.638,1.706,1.546,4.132,2.722,7.282c0.584-1.426,1.258-3.105,2.019-5.046c0.761-1.939,1.273-3.271,1.534-3.996
		c0.254-0.701,0.402-1.186,0.444-1.455c0.043-0.27,0.064-0.487,0.064-0.657c0-0.177-0.079-0.324-0.236-0.444
		c-0.157-0.12-0.367-0.221-0.629-0.306c-0.253-0.077-0.511-0.134-0.772-0.173c-0.262-0.039-0.527-0.069-0.796-0.094V51.99h6.088
		V52.809z"/>
	<path fill="#FFFFFF" d="M51.887,63.54l-0.311,4.823H37.987v-0.819c0.231-0.015,0.538-0.047,0.923-0.099
		c0.384-0.049,0.634-0.103,0.75-0.154c0.247-0.115,0.417-0.266,0.513-0.45c0.097-0.185,0.144-0.42,0.144-0.704v-11.77
		c0-0.254-0.042-0.479-0.126-0.676c-0.085-0.195-0.262-0.354-0.531-0.479c-0.208-0.1-0.487-0.188-0.836-0.266
		c-0.351-0.077-0.629-0.123-0.836-0.139V51.99h12.666v3.947h-0.865c-0.154-0.584-0.487-1.207-0.998-1.864
		c-0.511-0.658-0.998-1.019-1.459-1.079c-0.239-0.031-0.523-0.055-0.854-0.069c-0.331-0.014-0.708-0.022-1.13-0.022h-2.573v6.508
		h1.846c0.592,0,1.024-0.055,1.297-0.167c0.273-0.111,0.514-0.298,0.721-0.56c0.169-0.224,0.313-0.521,0.433-0.895
		c0.119-0.373,0.197-0.727,0.236-1.057h0.865v6.417h-0.865c-0.03-0.369-0.114-0.76-0.248-1.172
		c-0.134-0.412-0.275-0.709-0.421-0.896c-0.239-0.3-0.51-0.495-0.814-0.588c-0.303-0.092-0.705-0.139-1.205-0.139h-1.846v4.908
		c0,0.489,0.034,0.879,0.104,1.163c0.069,0.283,0.204,0.499,0.404,0.644c0.2,0.146,0.473,0.24,0.818,0.285
		c0.346,0.041,0.838,0.062,1.477,0.062c0.254,0,0.588,0,1.003,0c0.416,0,0.766-0.016,1.05-0.046c0.292-0.03,0.594-0.086,0.905-0.168
		c0.312-0.08,0.533-0.188,0.664-0.327c0.353-0.369,0.725-0.932,1.113-1.682s0.636-1.301,0.745-1.654L51.887,63.54L51.887,63.54z"/>
	<path fill="#FFFFFF" d="M69.34,67.453c-0.299-0.055-0.55-0.129-0.749-0.23c-0.27-0.14-0.541-0.316-0.814-0.537
		c-0.273-0.219-0.579-0.56-0.916-1.021c-0.778-1.047-1.433-1.935-1.968-2.667c-0.534-0.729-1.205-1.629-2.012-2.699
		c0.584-0.169,1.12-0.375,1.603-0.617c0.486-0.242,0.901-0.529,1.247-0.859c0.377-0.354,0.661-0.774,0.854-1.258
		c0.191-0.485,0.288-1.043,0.288-1.674c0-0.699-0.143-1.298-0.427-1.793c-0.285-0.498-0.666-0.898-1.143-1.207
		c-0.492-0.316-1.042-0.545-1.649-0.687c-0.608-0.142-1.258-0.214-1.95-0.214h-7.555v0.819c0.215,0.016,0.476,0.053,0.784,0.11
		s0.557,0.121,0.75,0.19c0.284,0.108,0.465,0.266,0.542,0.474c0.077,0.207,0.115,0.444,0.115,0.715v11.839
		c0,0.301-0.051,0.547-0.155,0.739c-0.104,0.19-0.272,0.336-0.502,0.438c-0.138,0.059-0.382,0.109-0.732,0.147
		c-0.349,0.038-0.617,0.063-0.801,0.08v0.817h6.921v-0.817c-0.239-0.007-0.531-0.034-0.877-0.08
		c-0.347-0.045-0.589-0.095-0.727-0.147c-0.277-0.11-0.458-0.267-0.542-0.469c-0.085-0.203-0.127-0.441-0.127-0.711v-5.191h1.676
		c0.922,1.184,1.776,2.334,2.564,3.451c0.788,1.114,1.669,2.438,2.645,3.969h4.407v-0.819C69.89,67.537,69.64,67.506,69.34,67.453z
		 M60.308,59.954h-1.511v-7.016h1.96c1.039,0,1.842,0.289,2.411,0.869c0.57,0.579,0.854,1.364,0.854,2.355
		c0,1.167-0.353,2.09-1.061,2.772C62.254,59.615,61.37,59.954,60.308,59.954z"/>
	<path fill="#FFFFFF" d="M86.172,56.362c-0.547-1.107-1.301-2.003-2.261-2.688c-0.708-0.514-1.539-0.924-2.492-1.229
		c-0.953-0.303-1.923-0.455-2.907-0.455H71.36v0.819c0.2,0.016,0.439,0.05,0.715,0.104c0.277,0.054,0.535,0.138,0.773,0.254
		c0.261,0.123,0.436,0.288,0.525,0.496c0.088,0.208,0.132,0.442,0.132,0.704v11.816c0,0.275-0.051,0.515-0.155,0.709
		c-0.104,0.197-0.272,0.344-0.502,0.444c-0.115,0.054-0.352,0.103-0.709,0.144c-0.358,0.043-0.648,0.063-0.871,0.063v0.819h6.783
		c1.123,0,2.212-0.161,3.265-0.483c1.054-0.323,2.003-0.813,2.849-1.467c0.838-0.655,1.519-1.494,2.042-2.515
		c0.522-1.022,0.784-2.23,0.784-3.624C86.991,58.773,86.718,57.471,86.172,56.362z M83.838,63.218
		c-0.219,0.849-0.567,1.597-1.044,2.242c-0.454,0.616-1.046,1.095-1.777,1.44c-0.73,0.347-1.584,0.52-2.56,0.52
		c-0.846,0-1.473-0.132-1.881-0.402c-0.408-0.268-0.611-0.752-0.611-1.453V52.986c0.192-0.007,0.486-0.017,0.882-0.028
		c0.396-0.013,0.752-0.019,1.067-0.019c0.946,0,1.805,0.181,2.578,0.543c0.773,0.36,1.425,0.855,1.955,1.485
		c0.561,0.661,0.988,1.436,1.28,2.323c0.292,0.887,0.438,1.88,0.438,2.98C84.165,61.383,84.057,62.368,83.838,63.218z"/>
	<path fill="#FFFFFF" d="M104.148,67.426c-0.285-0.072-0.515-0.165-0.693-0.271c-0.261-0.178-0.465-0.356-0.611-0.543
		c-0.146-0.186-0.277-0.428-0.393-0.728L96.995,51.76h-0.923c-0.777,2-1.661,4.282-2.653,6.844
		c-0.992,2.561-1.899,4.867-2.722,6.921c-0.161,0.4-0.327,0.714-0.496,0.94c-0.169,0.228-0.408,0.444-0.715,0.652
		c-0.193,0.122-0.438,0.22-0.738,0.293c-0.3,0.075-0.55,0.118-0.75,0.133v0.819h6.165v-0.819c-0.608-0.03-1.154-0.131-1.638-0.3
		c-0.485-0.169-0.727-0.408-0.727-0.715c0-0.131,0.019-0.301,0.057-0.508c0.039-0.207,0.108-0.479,0.209-0.81
		c0.107-0.337,0.228-0.709,0.363-1.106c0.134-0.398,0.31-0.869,0.525-1.407h5.747l1.355,3.67c0.03,0.077,0.053,0.165,0.069,0.266
		c0.015,0.101,0.023,0.185,0.023,0.253c0,0.17-0.198,0.313-0.594,0.428c-0.396,0.115-0.893,0.191-1.494,0.229v0.819h6.804
		l0.001-0.817C104.67,67.539,104.432,67.499,104.148,67.426z M93.354,61.672l2.444-6.355l2.479,6.355H93.354z"/>
	<path fill="#FFFFFF" d="M120.898,56.362c-0.546-1.107-1.3-2.003-2.261-2.688c-0.708-0.514-1.538-0.924-2.492-1.229
		c-0.953-0.303-1.922-0.455-2.907-0.455h-7.152v0.819c0.2,0.016,0.439,0.05,0.715,0.104c0.277,0.054,0.535,0.138,0.773,0.254
		c0.261,0.123,0.436,0.288,0.525,0.496c0.088,0.208,0.132,0.442,0.132,0.704v11.816c0,0.275-0.052,0.515-0.156,0.709
		c-0.104,0.197-0.272,0.344-0.502,0.444c-0.115,0.054-0.352,0.103-0.709,0.144c-0.358,0.043-0.648,0.063-0.871,0.063v0.819h6.783
		c1.123,0,2.211-0.161,3.265-0.483c1.054-0.323,2.003-0.813,2.849-1.467c0.838-0.655,1.52-1.494,2.042-2.515
		c0.524-1.022,0.785-2.23,0.785-3.624C121.717,58.773,121.444,57.469,120.898,56.362z M118.563,63.218
		c-0.219,0.849-0.567,1.597-1.044,2.242c-0.453,0.616-1.045,1.095-1.776,1.44c-0.731,0.347-1.584,0.52-2.561,0.52
		c-0.846,0-1.472-0.132-1.88-0.402c-0.407-0.268-0.611-0.752-0.611-1.453V52.986c0.191-0.007,0.486-0.017,0.882-0.028
		c0.396-0.013,0.751-0.019,1.067-0.019c0.946,0,1.805,0.181,2.578,0.543c0.773,0.36,1.425,0.855,1.955,1.485
		c0.561,0.661,0.988,1.436,1.28,2.323c0.292,0.887,0.438,1.88,0.438,2.98C118.891,61.383,118.782,62.365,118.563,63.218z"/>
</g>
</svg>
